<?xml version="1.0" encoding="UTF-8"?>
<svg id="Layer_1" data-name="Layer 1" xmlns="http://www.w3.org/2000/svg" viewBox="0 0 1392.99 349.29">
  <defs>
    <style>
      .cls-1 {
        fill: #fff;
      }

      .cls-2 {
        fill: #1f6bfa;
        stroke: #1f6bfa;
      }

      .cls-3 {
        fill: #fdb234;
        stroke: #fdb234;
      }
    </style>
  </defs>
  <path class="cls-3" d="M81.67,131.26c1.65-4.07,5-7.69,11.57-8.33,6.1-.6,12.12,1.8,16.45,6.13l15.27,15.27,42.25-47.7c3.31-3.74,7.61-6.55,12.45-7.8,6.1-1.58,13.53-1.02,16.39,9.3,2.24,8.08-.17,16.75-5.95,22.83l-57.68,60.68s-4.38,5.66-13.7,1.55c-2.89-1.27-5.44-3.21-7.57-5.54l-25.91-28.21c-4.51-4.91-6.06-12.01-3.55-18.19Z"/>
  <path class="cls-1" d="M326.19,328.2c-.33,8.8-4.11,17.2-16.85,18.53-7.83.82-15.65-1.62-21.89-6.42l-65.83-50.59c-3.06-2.35-3.65-6.73-1.33-9.81l20.88-27.63c2.37-3.13,6.84-3.72,9.93-1.3,12.9,10.09,44.76,34.99,60.98,47.67,9.08,7.09,14.53,18.04,14.1,29.56Z"/>
  <path class="cls-1" d="M271.46,113.89c-2.22-17.68-6.48-28.29-6.48-28.29C209.19-29.77,101.67,4.88,101.67,4.88-4.25,33.97.02,136.42.02,136.42.02,239.72,122.25,346.23,122.25,346.23c5.09,4.04,10.18,4.28,15.29-.54,31.41-30.83,56.84-61.19,76.54-87.17l-36.09-40.26c-12.51,6.31-26.64,9.87-41.6,9.87-51.07,0-92.47-41.4-92.47-92.47s41.4-92.47,92.47-92.47,92.47,41.4,92.47,92.47c0,32.59-16.86,61.24-42.33,77.71l33.44,37.3c12.41-16.77,22.26-31.4,29.64-42.71,18.13-27.81,26-61.13,21.86-94.08Z"/>
  <g>
    <path class="cls-1" d="M339.33,236.61c-4.32,0-7.47-.63-9.45-1.89-1.98-1.26-3.18-2.97-3.6-5.13-.42-2.16-.63-4.38-.63-6.66v-98.46c0-2.28.21-4.47.63-6.57.42-2.1,1.59-3.81,3.51-5.13,1.92-1.32,5.1-1.98,9.54-1.98s7.77.66,9.63,1.98c1.86,1.32,3,3.03,3.42,5.13.42,2.1.63,4.35.63,6.75v88.2h49.32c2.04,0,3.96.18,5.76.54,1.8.36,3.27,1.38,4.41,3.06,1.14,1.68,1.71,4.44,1.71,8.28s-.6,6.45-1.8,8.19c-1.2,1.74-2.67,2.79-4.41,3.15-1.74.36-3.63.54-5.67.54h-63Z"/>
    <path class="cls-1" d="M492.69,236.43c-4.44,0-7.74-.78-9.9-2.34-2.16-1.56-3.18-3.48-3.06-5.76l1.8-3.06c-.72,1.2-2.1,2.67-4.14,4.41-2.04,1.74-4.71,3.3-8.01,4.68-3.3,1.38-7.29,2.07-11.97,2.07-5.52,0-10.77-1.2-15.75-3.6-4.98-2.4-9.39-5.73-13.23-9.99-3.84-4.26-6.9-9.09-9.18-14.49-2.28-5.4-3.42-11.1-3.42-17.1s1.14-11.49,3.42-16.83c2.28-5.34,5.37-10.08,9.27-14.22,3.9-4.14,8.31-7.41,13.23-9.81,4.92-2.4,10.14-3.6,15.66-3.6,4.44,0,8.22.63,11.34,1.89,3.12,1.26,5.73,2.73,7.83,4.41,2.1,1.68,3.69,3.3,4.77,4.86l-1.62-2.52c0-2.88,1.05-5.07,3.15-6.57,2.1-1.5,5.43-2.25,9.99-2.25,4.32,0,7.41.66,9.27,1.98,1.86,1.32,3,3.06,3.42,5.22.42,2.16.63,4.44.63,6.84v62.1c0,2.28-.21,4.5-.63,6.66-.42,2.16-1.56,3.87-3.42,5.13-1.86,1.26-5.01,1.89-9.45,1.89ZM461.19,209.61c3.24,0,6.12-.81,8.64-2.43,2.52-1.62,4.56-3.81,6.12-6.57,1.56-2.76,2.34-5.82,2.34-9.18s-.78-6.57-2.34-9.27c-1.56-2.7-3.66-4.83-6.3-6.39-2.64-1.56-5.58-2.34-8.82-2.34s-6.39.81-9.09,2.43c-2.7,1.62-4.86,3.81-6.48,6.57-1.62,2.76-2.43,5.88-2.43,9.36,0,3.24.81,6.21,2.43,8.91,1.62,2.7,3.84,4.86,6.66,6.48,2.82,1.62,5.91,2.43,9.27,2.43Z"/>
    <path class="cls-1" d="M552.62,236.97c-3.24,0-5.73-.63-7.47-1.89-1.74-1.26-3-2.73-3.78-4.41-.78-1.68-1.47-3.12-2.07-4.32l-25.2-62.82c-.84-2.88-1.23-5.28-1.17-7.2.06-1.92.78-3.6,2.16-5.04,1.38-1.44,3.57-2.7,6.57-3.78,4.56-1.92,8.28-2.46,11.16-1.62,2.88.84,5.04,3.3,6.48,7.38l13.32,36.18,11.88-33.3c.48-1.2,1.14-2.55,1.98-4.05.84-1.5,2.13-2.85,3.87-4.05,1.74-1.2,4.11-1.8,7.11-1.8,3.24,0,5.76.6,7.56,1.8,1.8,1.2,3.15,2.58,4.05,4.14.9,1.56,1.53,2.88,1.89,3.96l11.88,33.3,12.42-33.84c1.8-4.56,4.05-7.62,6.75-9.18,2.7-1.56,6.33-1.38,10.89.54,4.2,1.8,7.11,4.05,8.73,6.75,1.62,2.7,1.47,6.03-.45,9.99l-25.38,62.64c-.48,1.32-1.14,2.82-1.98,4.5-.84,1.68-2.1,3.12-3.78,4.32-1.68,1.2-4.02,1.8-7.02,1.8s-5.55-.54-7.29-1.62c-1.74-1.08-3.03-2.46-3.87-4.14-.84-1.68-1.56-3.36-2.16-5.04l-12.06-33.12-11.88,33.12c-.84,2.16-1.62,4.05-2.34,5.67-.72,1.62-1.89,2.88-3.51,3.78-1.62.9-4.05,1.35-7.29,1.35Z"/>
    <path class="cls-1" d="M662.96,236.43c-4.44,0-7.59-.63-9.45-1.89-1.86-1.26-3-2.94-3.42-5.04-.42-2.1-.63-4.29-.63-6.57v-63.36c0-2.28.21-4.41.63-6.39.42-1.98,1.59-3.57,3.51-4.77,1.92-1.2,5.1-1.8,9.54-1.8,3.84,0,6.66.51,8.46,1.53,1.8,1.02,2.97,2.25,3.51,3.69.54,1.44.81,2.79.81,4.05s.12,2.13.36,2.61l-1.08,3.42c.24-1.8,1.17-3.63,2.79-5.49,1.62-1.86,3.66-3.54,6.12-5.04,2.46-1.5,5.1-2.67,7.92-3.51,2.82-.84,5.61-1.26,8.37-1.26,5.76,0,10.89,1.05,15.39,3.15,4.5,2.1,8.31,5.13,11.43,9.09,3.12,3.96,5.49,8.61,7.11,13.95,1.62,5.34,2.43,11.19,2.43,17.55v32.76c0,2.28-.21,4.47-.63,6.57-.42,2.1-1.56,3.75-3.42,4.95-1.86,1.2-5.07,1.8-9.63,1.8s-7.62-.63-9.54-1.89c-1.92-1.26-3.09-2.94-3.51-5.04-.42-2.1-.63-4.29-.63-6.57v-32.58c0-3.6-.63-6.66-1.89-9.18-1.26-2.52-3.06-4.44-5.4-5.76-2.34-1.32-5.25-1.98-8.73-1.98s-6.48.69-9,2.07c-2.52,1.38-4.47,3.33-5.85,5.85-1.38,2.52-2.07,5.52-2.07,9v32.76c0,2.28-.21,4.47-.63,6.57-.42,2.1-1.56,3.75-3.42,4.95-1.86,1.2-5.01,1.8-9.45,1.8Z"/>
    <path class="cls-1" d="M810.92,237.87c-9.12,0-16.89-1.38-23.31-4.14-6.42-2.76-11.25-6.84-14.49-12.24s-4.86-12.06-4.86-19.98c0-4.2.75-8.25,2.25-12.15,1.5-3.9,3.78-7.77,6.84-11.61,3.06-3.84,6.81-7.62,11.25-11.34-1.56-3.24-2.88-6.45-3.96-9.63-1.08-3.18-1.89-6.3-2.43-9.36-.54-3.06-.81-6.03-.81-8.91,0-7.08,1.44-13.05,4.32-17.91,2.88-4.86,7.14-8.55,12.78-11.07,5.64-2.52,12.48-3.78,20.52-3.78,6.84,0,12.72,1.2,17.64,3.6,4.92,2.4,8.73,5.82,11.43,10.26,2.7,4.44,4.05,9.78,4.05,16.02,0,3.72-.81,7.23-2.43,10.53-1.62,3.3-3.87,6.48-6.75,9.54s-6.12,6.03-9.72,8.91-7.38,5.76-11.34,8.64c2.4,3.12,4.83,6.15,7.29,9.09,2.46,2.94,5.01,5.67,7.65,8.19,2.64,2.52,5.22,4.74,7.74,6.66,2.52-2.64,4.38-5.19,5.58-7.65,1.2-2.46,2.04-5.01,2.52-7.65.48-2.4,1.89-4.23,4.23-5.49s5.67-1.89,9.99-1.89c3.72,0,6.39.51,8.01,1.53,1.62,1.02,2.67,2.22,3.15,3.6.48,1.38.66,2.67.54,3.87-.24,4.2-1.38,8.4-3.42,12.6-2.04,4.2-4.8,8.4-8.28,12.6.72.24,1.41.42,2.07.54.66.12,1.38.21,2.16.27.78.06,1.71.09,2.79.09,4.2,0,7.32,1.05,9.36,3.15,2.04,2.1,3.06,5.25,3.06,9.45,0,5.28-.9,8.91-2.7,10.89-1.8,1.98-5.1,2.97-9.9,2.97-3.36,0-6.69-.27-9.99-.81-3.3-.54-6.6-1.38-9.9-2.52-3.3-1.14-6.57-2.55-9.81-4.23-3.48,1.92-7.05,3.57-10.71,4.95-3.66,1.38-7.35,2.46-11.07,3.24-3.72.78-7.5,1.17-11.34,1.17ZM811.82,213.75c1.8,0,3.54-.18,5.22-.54,1.68-.36,3.12-.78,4.32-1.26-1.56-1.44-3.15-3.03-4.77-4.77-1.62-1.74-3.3-3.57-5.04-5.49-1.74-1.92-3.42-3.87-5.04-5.85-1.62-1.98-3.21-4.05-4.77-6.21-1.08,1.08-1.98,2.13-2.7,3.15-.72,1.02-1.32,2.01-1.8,2.97-.48.96-.84,1.89-1.08,2.79-.24.9-.36,1.83-.36,2.79,0,2.64.63,4.89,1.89,6.75,1.26,1.86,3.09,3.27,5.49,4.23,2.4.96,5.28,1.44,8.64,1.44ZM810.02,152.01c2.88-2.04,5.4-3.87,7.56-5.49s3.96-3.09,5.4-4.41c1.44-1.32,2.52-2.55,3.24-3.69.72-1.14,1.08-2.19,1.08-3.15,0-2.52-.81-4.5-2.43-5.94-1.62-1.44-3.81-2.16-6.57-2.16s-4.86.39-6.66,1.17c-1.8.78-3.15,1.89-4.05,3.33-.9,1.44-1.35,3.18-1.35,5.22,0,1.44.15,2.91.45,4.41.3,1.5.72,3.15,1.26,4.95s1.23,3.72,2.07,5.76Z"/>
    <path class="cls-2" d="M935.66,236.61c-4.32,0-7.44-.63-9.36-1.89-1.92-1.26-3.09-2.97-3.51-5.13-.42-2.16-.63-4.38-.63-6.66v-98.46c0-5.16,1.02-8.73,3.06-10.71,2.04-1.98,5.7-2.97,10.98-2.97h68.04c2.4,0,4.62.21,6.66.63,2.04.42,3.69,1.59,4.95,3.51,1.26,1.92,1.89,5.16,1.89,9.72,0,4.32-.66,7.44-1.98,9.36-1.32,1.92-3.03,3.09-5.13,3.51-2.1.42-4.35.63-6.75.63h-54.36v23.22h36.9c2.4,0,4.53.18,6.39.54,1.86.36,3.33,1.38,4.41,3.06,1.08,1.68,1.62,4.56,1.62,8.64,0,3.72-.54,6.39-1.62,8.01s-2.58,2.61-4.5,2.97c-1.92.36-4.08.54-6.48.54h-36.72v37.98c0,2.28-.24,4.47-.72,6.57-.48,2.1-1.65,3.78-3.51,5.04-1.86,1.26-5.07,1.89-9.63,1.89Z"/>
    <path class="cls-2" d="M1062.92,238.05c-5.64,0-11.25-1.11-16.83-3.33-5.58-2.22-10.65-5.37-15.21-9.45-4.56-4.08-8.19-8.97-10.89-14.67-2.7-5.7-4.05-12.03-4.05-18.99,0-6.48,1.23-12.51,3.69-18.09,2.46-5.58,5.85-10.53,10.17-14.85,4.32-4.32,9.27-7.71,14.85-10.17,5.58-2.46,11.55-3.69,17.91-3.69,8.64,0,16.47,2.07,23.49,6.21,7.02,4.14,12.63,9.75,16.83,16.83,4.2,7.08,6.3,14.94,6.3,23.58,0,7.32-1.35,13.83-4.05,19.53-2.7,5.7-6.3,10.59-10.8,14.67-4.5,4.08-9.48,7.17-14.94,9.27-5.46,2.1-10.95,3.15-16.47,3.15ZM1062.56,210.87c2.88,0,5.82-.72,8.82-2.16,3-1.44,5.52-3.6,7.56-6.48,2.04-2.88,3.06-6.54,3.06-10.98,0-3.84-.84-7.2-2.52-10.08-1.68-2.88-3.99-5.13-6.93-6.75-2.94-1.62-6.33-2.43-10.17-2.43-3.6,0-6.81.84-9.63,2.52-2.82,1.68-5.1,3.99-6.84,6.93-1.74,2.94-2.61,6.27-2.61,9.99,0,4.32.99,7.95,2.97,10.89,1.98,2.94,4.47,5.1,7.47,6.48,3,1.38,5.94,2.07,8.82,2.07Z"/>
    <path class="cls-2" d="M1153.28,236.43c-5.64,0-10.86-1.08-15.66-3.24-4.8-2.16-9-5.19-12.6-9.09-3.6-3.9-6.39-8.52-8.37-13.86-1.98-5.34-2.97-11.19-2.97-17.55v-32.58c0-2.4.21-4.62.63-6.66.42-2.04,1.59-3.72,3.51-5.04,1.92-1.32,5.1-1.98,9.54-1.98s7.59.66,9.45,1.98c1.86,1.32,3,3.03,3.42,5.13.42,2.1.63,4.35.63,6.75v32.4c0,3.48.63,6.51,1.89,9.09,1.26,2.58,3.12,4.53,5.58,5.85,2.46,1.32,5.37,1.98,8.73,1.98s6.45-.69,8.91-2.07c2.46-1.38,4.38-3.33,5.76-5.85,1.38-2.52,2.07-5.52,2.07-9v-32.76c0-2.4.21-4.62.63-6.66.42-2.04,1.59-3.69,3.51-4.95,1.92-1.26,5.1-1.89,9.54-1.89s7.59.66,9.45,1.98c1.86,1.32,3,3.03,3.42,5.13.42,2.1.63,4.29.63,6.57v63.36c0,2.28-.21,4.41-.63,6.39-.42,1.98-1.59,3.57-3.51,4.77-1.92,1.2-5.04,1.8-9.36,1.8-3.24,0-5.76-.36-7.56-1.08-1.8-.72-3.12-1.62-3.96-2.7-.84-1.08-1.35-2.22-1.53-3.42-.18-1.2-.27-2.28-.27-3.24l2.34-1.98c-.36.6-1.14,1.53-2.34,2.79-1.2,1.26-2.79,2.64-4.77,4.14-1.98,1.5-4.29,2.79-6.93,3.87-2.64,1.08-5.7,1.62-9.18,1.62Z"/>
    <path class="cls-2" d="M1223.3,236.43c-4.44,0-7.59-.63-9.45-1.89-1.86-1.26-3-2.94-3.42-5.04-.42-2.1-.63-4.29-.63-6.57v-63.36c0-2.28.21-4.41.63-6.39.42-1.98,1.59-3.57,3.51-4.77,1.92-1.2,5.1-1.8,9.54-1.8,3.84,0,6.66.51,8.46,1.53,1.8,1.02,2.97,2.25,3.51,3.69.54,1.44.81,2.79.81,4.05s.12,2.13.36,2.61l-1.08,3.42c.24-1.8,1.17-3.63,2.79-5.49,1.62-1.86,3.66-3.54,6.12-5.04,2.46-1.5,5.1-2.67,7.92-3.51,2.82-.84,5.61-1.26,8.37-1.26,5.76,0,10.89,1.05,15.39,3.15,4.5,2.1,8.31,5.13,11.43,9.09,3.12,3.96,5.49,8.61,7.11,13.95,1.62,5.34,2.43,11.19,2.43,17.55v32.76c0,2.28-.21,4.47-.63,6.57-.42,2.1-1.56,3.75-3.42,4.95-1.86,1.2-5.07,1.8-9.63,1.8s-7.62-.63-9.54-1.89c-1.92-1.26-3.09-2.94-3.51-5.04-.42-2.1-.63-4.29-.63-6.57v-32.58c0-3.6-.63-6.66-1.89-9.18-1.26-2.52-3.06-4.44-5.4-5.76-2.34-1.32-5.25-1.98-8.73-1.98s-6.48.69-9,2.07c-2.52,1.38-4.47,3.33-5.85,5.85-1.38,2.52-2.07,5.52-2.07,9v32.76c0,2.28-.21,4.47-.63,6.57-.42,2.1-1.56,3.75-3.42,4.95-1.86,1.2-5.01,1.8-9.45,1.8Z"/>
    <path class="cls-2" d="M1344.07,236.43c-5.52,0-10.74-1.17-15.66-3.51-4.92-2.34-9.3-5.61-13.14-9.81-3.84-4.2-6.87-9.03-9.09-14.49-2.22-5.46-3.33-11.25-3.33-17.37s1.11-11.49,3.33-16.83c2.22-5.34,5.28-10.08,9.18-14.22,3.9-4.14,8.31-7.41,13.23-9.81,4.92-2.4,10.08-3.6,15.48-3.6,5.76,0,10.83,1.17,15.21,3.51,4.38,2.34,8.04,5.55,10.98,9.63,2.94,4.08,5.19,8.82,6.75,14.22,1.56,5.4,2.4,11.04,2.52,16.92,0,6.12-.72,11.88-2.16,17.28-1.44,5.4-3.66,10.2-6.66,14.4-3,4.2-6.72,7.53-11.16,9.99-4.44,2.46-9.6,3.69-15.48,3.69ZM1347.67,209.79c3.24,0,6.15-.81,8.73-2.43,2.58-1.62,4.68-3.81,6.3-6.57,1.62-2.76,2.43-5.82,2.43-9.18s-.78-6.39-2.34-9.09c-1.56-2.7-3.66-4.86-6.3-6.48-2.64-1.62-5.64-2.43-9-2.43s-6.21.78-8.91,2.34c-2.7,1.56-4.8,3.72-6.3,6.48-1.5,2.76-2.25,5.82-2.25,9.18s.78,6.42,2.34,9.18c1.56,2.76,3.72,4.95,6.48,6.57,2.76,1.62,5.7,2.43,8.82,2.43ZM1378.99,236.61c-4.08,0-7.11-.66-9.09-1.98-1.98-1.32-3.27-3.36-3.87-6.12v-109.08c0-2.28.15-4.47.45-6.57.3-2.1,1.35-3.81,3.15-5.13,1.8-1.32,4.86-1.98,9.18-1.98,4.56,0,7.74.63,9.54,1.89,1.8,1.26,2.94,2.91,3.42,4.95.48,2.04.72,4.26.72,6.66v103.68c0,2.28-.21,4.47-.63,6.57-.42,2.1-1.56,3.81-3.42,5.13-1.86,1.32-5.01,1.98-9.45,1.98Z"/>
  </g>
</svg>