<svg viewBox="0 0 1796 464" version="1.1" xmlns="http://www.w3.org/2000/svg" desc="Created with imagetracer.js version 1.2.6" ><path fill="rgb(0,0,0)" stroke="rgb(0,0,0)" stroke-width="1" opacity="0" d="M 0 0 L 167.5 0 L 168 2.5 L 166.5 4 L 145.5 4 L 144 5.5 L 142.5 8 L 129.5 8 L 128 9.5 L 126.5 12 Q 118.25 9.75 116 13.5 L 114.5 16 L 108 17.5 L 106.5 20 Q 98.25 17.75 96 21.5 L 94.5 24 L 92 25.5 L 90.5 28 L 84 29.5 L 82.5 32 L 80 33.5 L 78.5 36 L 72 37.5 L 70.5 40 L 68 41.5 L 66.5 44 L 64 45.5 L 62.5 48 L 60 49.5 L 58.5 52 L 56 53.5 L 54.5 56 L 52 57.5 L 50.5 60 L 48 61.5 L 46.5 64 L 44 65.5 L 42.5 68 L 40 69.5 L 38.5 72 L 36 73.5 L 34.5 76 L 32 77.5 L 30.5 84 L 28 85.5 L 26.5 88 L 24 89.5 L 22.5 96 L 20 97.5 L 18.5 104 L 16 105.5 Q 18.25 113.75 14.5 116 L 12 117.5 L 10.5 124 L 8 125.5 L 8 138.5 L 6.5 139 L 4 141.5 L 4 154.5 L 2.5 156 L 0 155.5 L 0 0 Z " /><path fill="rgb(0,0,0)" stroke="rgb(0,0,0)" stroke-width="1" opacity="0" d="M 196 0 L 1795.5 0 L 1796 0.5 L 1796 176 L 1792 174.5 L 1792 161.5 L 1789.5 159 L 1788 157.5 L 1786.5 156 L 1765.5 156 L 1762.5 160 L 1756 161.5 L 1756 209.5 L 1755 212 Q 1748.63 213.5 1749 210.5 L 1748 208 L 1740 206.5 L 1738.5 204 L 1709.5 204 L 1708 205.5 L 1706.5 208 L 1700 209.5 L 1698.5 212 L 1692 213.5 L 1690.5 216 L 1688 217.5 L 1686.5 220 L 1684 221.5 L 1682.5 224 L 1680 225.5 L 1678.5 228 L 1676 229.5 Q 1678.25 237.75 1674.5 240 L 1672 241.5 Q 1674 251.5 1668 253.5 L 1668 278.5 L 1672 282.5 L 1673.5 288 L 1676 289.5 Q 1673.75 297.75 1677.5 300 L 1680 301.5 L 1681.5 304 L 1684 305.5 Q 1680.75 315.25 1690.5 312 L 1693.5 316 L 1696 317.5 L 1697.5 320 L 1704 321.5 L 1705.5 324 L 1718.5 324 L 1720 325.5 L 1721.5 328 Q 1729.75 330.25 1732 326.5 L 1733.5 324 Q 1741.75 326.25 1744 322.5 L 1745.5 320 L 1752 318.5 L 1753.5 316 L 1756 317.5 L 1758.5 321 L 1760 322.5 L 1761.5 324 L 1786.5 324 L 1788 321 L 1792 318.5 L 1793.5 317 L 1796 316 L 1796 463.5 L 1795.5 464 L 184 464 L 185.5 460 L 188 458.5 L 189.5 457 L 193.5 452 L 196 450.5 L 197.5 448 L 200 446.5 L 201.5 444 L 204 442.5 L 205.5 440 L 208 438.5 L 209.5 436 L 212 434.5 L 213.5 432 L 216 430.5 L 217.5 428 L 220 426.5 L 221.5 424 L 224 422.5 L 225.5 420 L 228 418.5 L 229.5 416 L 232 414.5 L 233.5 412 L 236 410.5 L 237.5 408 L 240 406.5 L 241.5 404 L 244 402.5 L 245.5 400 L 248 398.5 L 249.5 396 L 252 394.5 L 253.5 388 L 256 386.5 L 257.5 384 L 260 382.5 L 261.5 380 L 264 378.5 L 265.5 376 L 268 374.5 L 269.5 368 L 272 366.5 L 273.5 364 L 276 362.5 L 277.5 360 L 280 358.5 L 280 341.5 L 278.5 340 L 276 338.5 L 274.5 336 L 272 334.5 L 270.5 332 L 268 330.5 L 266.5 324 L 264 322.5 L 262.5 320 L 260 318.5 L 258.5 316 L 256 314.5 L 254.5 312 L 252 310.5 L 250.5 304 L 248 302.5 L 246.5 300 L 244 298.5 L 242.5 296 Q 234.25 293.75 232 297.5 L 230.5 300 L 224 301.5 L 222.5 304 L 197.5 304 L 196 305.5 L 194.5 308 L 169.5 308 L 168 306.5 L 166.5 304 L 145.5 304 L 144 302.5 L 142.5 300 L 136 298.5 L 134.5 296 L 128 294.5 L 126.5 292 L 120 290.5 L 118.5 288 L 116 286.5 L 114.5 284 L 108 282.5 L 106.5 280 L 104 278.5 L 102.5 276 L 100 274.5 L 98.5 272 L 96 270.5 L 94.5 268 L 92 266.5 L 90.5 264 L 88 262.5 L 86.5 260 L 84 258.5 L 82.5 256 L 80 254.5 L 78.5 248 L 76 246.5 L 74.5 240 L 72 238.5 L 70.5 232 L 68 230.5 Q 70.25 222.25 66.5 220 L 64 218.5 L 64 201.5 L 62.5 200 L 60 198.5 L 60 169.5 L 61.5 168 L 64 166.5 L 64 153.5 L 65.5 152 L 68 150.5 Q 65.75 142.25 69.5 140 L 72 138.5 L 73.5 132 L 76 130.5 L 77.5 128 L 80 126.5 L 81.5 124 Q 89.75 121.75 92 125.5 L 93.5 128 L 100 129.5 L 100 142.5 L 101.5 144 L 104 145.5 L 105.5 152 L 108 153.5 L 109.5 156 L 112 157.5 L 113.5 160 L 142.5 160 L 144 158.5 L 145.5 156 L 152 154.5 L 153.5 152 L 156 150.5 L 157.5 148 L 160 146.5 L 161.5 144 L 164 142.5 L 164 117.5 L 162.5 116 L 160 114.5 L 158.5 112 L 152 110.5 L 150.5 108 Q 142.25 110.25 140 106.5 L 138.5 104 L 136 102.5 L 136 97.5 Q 131.25 96.75 132 90.5 L 136 86.5 Q 133.75 78.25 137.5 76 L 140 74.5 L 141.5 72 L 144 70.5 L 145.5 68 L 148 66.5 L 149.5 64 L 218.5 64 L 220 65.5 L 221.5 68 L 228 69.5 L 229.5 72 L 236 73.5 L 237.5 76 L 244 77.5 L 245.5 80 L 252 81.5 L 253.5 84 L 256 85.5 L 257.5 88 L 264 89.5 L 265.5 92 L 268 93.5 L 269.5 96 L 272 97.5 L 273.5 100 L 276 101.5 L 277.5 104 L 280 105.5 L 281.5 112 L 284 113.5 L 285.5 116 L 288 117.5 L 289.5 120 L 292 121.5 Q 289.75 129.75 293.5 132 L 296 133.5 L 297.5 140 L 300 141.5 L 300 154.5 L 301.5 156 L 304 157.5 L 304 174.5 L 305.5 176 L 308 177.5 Q 310.25 185.75 306.5 188 L 304 189.5 L 304 210.5 L 302.5 212 L 300 213.5 L 300 226.5 L 298.5 228 L 296 229.5 L 294.5 236 L 292 237.5 Q 294.25 245.75 290.5 248 L 288 249.5 L 286.5 252 L 284 253.5 L 282.5 256 L 280 257.5 L 278.5 264 L 276 265.5 L 274.5 268 L 272 269.5 L 270.5 272 L 268 273.5 L 266.5 276 L 264 277.5 L 262.5 280 L 260 281.5 L 258.5 284 L 252 288 Q 250.12 292.8 253.5 292 L 260 297.5 L 261.5 300 L 264 301.5 L 265.5 308 L 268 309.5 L 269.5 312 L 272 313.5 L 273.5 316 L 276 317.5 L 277.5 320 L 280 321.5 L 281.5 324 L 284 325.5 L 285.5 328 L 292 326.5 L 293.5 324 L 296 322.5 L 297.5 320 Q 305.39 322.92 304 317.5 L 308 314.5 L 309.5 312 L 312 310.5 L 313.5 308 L 316 306.5 L 317.5 304 L 320 302.5 L 321.5 300 L 324 298.5 L 325.5 296 L 328 294.5 L 329.5 288 L 332 286.5 L 333.5 284 L 336 282.5 L 337.5 276 L 340 274.5 L 341.5 272 L 344 270.5 L 345.5 264 L 348 262.5 L 349.5 256 L 352 254.5 L 353.5 248 L 356 246.5 L 356 233.5 L 357.5 232 L 360 230.5 Q 357.75 222.25 361.5 220 L 364 218.5 L 364 145.5 L 362.5 144 L 360 142.5 Q 362.25 134.25 358.5 132 L 356 130.5 L 356 117.5 L 354.5 116 L 352 114.5 L 350.5 108 L 348 106.5 L 346.5 100 L 344 98.5 L 342.5 92 L 340 90.5 L 338.5 84 L 336 82.5 L 334.5 76 L 332 74.5 L 330.5 72 L 328 70.5 L 326.5 68 L 324 66.5 L 322.5 64 L 320 62.5 L 318.5 60 L 316 58.5 L 314.5 56 L 312 54.5 L 310.5 52 L 308 50.5 L 306.5 48 L 304 46.5 L 302.5 44 L 300 42.5 L 298.5 40 L 296 38.5 L 294.5 36 L 288 34.5 L 286.5 32 L 284 30.5 L 282.5 28 L 276 26.5 L 274.5 24 L 268 22.5 L 266.5 20 L 260 18.5 L 258.5 16 L 252 14.5 L 250.5 12 Q 242.25 14.25 240 10.5 L 238.5 8 L 221.5 8 L 220 6.5 L 218.5 4 L 197.5 4 L 196 2.5 L 196 0 Z M 238 136 L 236 139 L 230 140 L 228 143 L 226 144 L 224 151 L 222 152 L 220 155 L 218 156 L 216 159 L 214 160 L 212 163 L 210 164 L 208 167 L 206 168 L 204 171 L 202 172 L 200 175 L 198 176 L 196 179 L 194 180 L 192 183 L 190 184 L 188 187 L 186 188 L 184 191 L 182 192 L 180 199 L 172 202 L 171 203 L 168 207 L 166 208 L 162 203 L 160 202 L 158 200 L 156 198 L 154 196 L 152 194 L 150 192 L 148 190 L 146 188 L 144 186 L 138 184 L 136 182 Q 134 178 126 180 L 124 183 L 118 184 L 116 187 L 114 188 L 112 195 L 110 196 L 108 198 L 108 211 L 111 212 L 112 219 L 115 220 L 116 223 L 119 224 L 120 227 L 123 228 L 124 231 L 127 232 L 128 235 L 131 236 L 132 239 L 135 240 L 136 243 L 139 244 L 140 247 L 143 248 L 144 251 L 147 252 L 148 255 L 151 256 L 152 259 L 155 260 L 156 263 L 158 264 L 175 264 L 176 262 L 179 260 L 180 258 L 183 256 L 184 254 L 187 252 L 188 250 L 191 248 L 192 246 L 195 244 L 196 242 L 199 240 L 200 238 L 203 236 L 204 234 L 207 232 L 208 230 L 211 228 L 212 226 L 215 224 L 216 222 L 219 220 L 220 218 L 223 216 L 224 214 L 227 212 L 228 210 L 231 208 L 232 202 L 235 200 L 236 198 L 239 196 L 240 194 L 243 192 L 244 190 L 247 188 L 248 186 L 251 184 L 252 182 L 255 180 L 256 178 L 259 176 L 260 174 L 263 172 L 264 166 L 267 164 Q 270 162 268 154 L 266 152 L 264 150 L 260 147 Q 263 137 254 140 L 252 138 L 251 136 L 238 136 Z M 446 152 L 444 155 L 438 156 L 436 158 L 436 319 L 439 320 L 440 323 L 442 324 L 539 324 L 540 322 L 543 320 L 544 319 L 544 286 L 543 284 L 482 284 L 476 278 Q 475 271 480 271 L 480 254 L 478 252 L 476 250 L 480 247 L 479 244 L 476 242 L 476 230 L 479 228 L 480 222 L 478 220 L 476 218 L 479 216 L 480 215 L 480 186 L 478 184 L 476 182 L 479 180 L 480 174 L 478 172 L 476 171 L 476 158 L 470 156 L 468 154 L 467 152 L 446 152 Z M 1062 152 L 1060 155 Q 1058 158 1050 156 L 1048 159 L 1042 160 L 1040 163 L 1034 164 L 1032 167 L 1030 168 L 1028 175 L 1026 176 L 1024 179 L 1022 180 L 1020 182 L 1020 215 L 1023 216 L 1024 223 L 1027 224 L 1028 227 L 1031 228 L 1032 231 L 1030 232 L 1027 236 Q 1017 233 1020 243 L 1018 244 L 1016 247 L 1014 248 L 1012 255 L 1010 256 L 1008 263 L 1006 264 L 1004 266 L 1004 287 L 1007 288 L 1008 295 L 1011 296 L 1012 303 L 1015 304 L 1016 307 L 1019 308 L 1020 311 L 1023 312 L 1024 315 L 1027 316 L 1028 319 Q 1030 322 1039 320 L 1040 323 Q 1042 326 1051 324 L 1052 327 L 1054 328 L 1067 328 L 1068 326 L 1070 324 L 1083 324 L 1084 322 Q 1086 318 1095 320 L 1096 318 L 1099 316 L 1101 312 L 1108 314 Q 1105 323 1115 320 L 1116 323 L 1118 324 L 1147 324 L 1148 322 L 1151 320 Q 1154 318 1152 310 L 1150 308 L 1148 306 L 1146 304 L 1144 302 L 1142 300 L 1140 298 L 1138 296 L 1136 294 L 1134 292 L 1132 290 L 1130 288 L 1128 286 L 1131 284 L 1132 278 L 1135 276 L 1136 274 L 1139 272 L 1140 266 L 1143 264 L 1144 258 L 1147 256 L 1148 250 L 1146 248 L 1144 246 L 1142 244 L 1140 242 L 1134 240 L 1131 236 L 1116 236 L 1116 243 L 1114 244 L 1112 247 L 1110 248 L 1107 256 Q 1100 257 1101 255 L 1098 252 L 1096 250 L 1094 248 L 1092 242 L 1088 239 L 1090 236 Q 1097 239 1096 234 L 1099 232 L 1100 230 L 1103 228 L 1104 226 L 1107 224 L 1108 218 L 1111 216 L 1112 215 L 1112 178 L 1110 176 L 1108 174 L 1106 172 L 1104 170 L 1102 168 L 1100 166 L 1098 164 L 1096 162 L 1090 160 L 1088 158 L 1087 156 L 1074 156 L 1072 154 Q 1070 150 1062 152 Z M 1198 160 L 1196 163 L 1194 164 L 1192 166 L 1192 319 L 1199 320 L 1200 323 L 1202 324 L 1227 324 L 1228 322 L 1231 320 L 1232 319 L 1232 266 L 1234 264 L 1283 264 L 1284 262 L 1287 260 L 1288 259 L 1288 230 L 1287 228 L 1234 228 L 1232 227 L 1232 198 L 1234 196 L 1295 196 L 1296 194 L 1299 192 L 1300 191 L 1300 166 L 1298 164 L 1296 162 L 1295 160 L 1198 160 Z M 590 200 L 588 203 L 582 204 L 580 207 L 574 208 L 572 211 L 570 212 L 568 215 L 566 216 L 564 219 L 562 220 L 560 223 L 558 224 L 556 231 L 554 232 L 552 239 L 550 240 L 548 242 L 548 287 L 555 292 Q 558 294 556 303 L 559 304 L 560 307 L 563 308 L 564 311 L 567 312 L 568 315 L 571 316 L 572 319 Q 574 322 583 320 L 584 323 Q 586 326 595 324 L 596 327 L 598 328 L 611 328 L 612 326 Q 614 322 623 324 L 624 322 L 631 320 L 632 318 L 635 316 L 636 319 L 643 320 L 644 323 L 646 324 L 667 324 L 668 322 L 671 320 L 672 318 L 676 315 L 676 210 L 674 207 L 672 206 L 671 204 L 642 204 L 640 207 Q 638 210 630 208 L 628 206 L 622 204 L 620 202 L 619 200 L 590 200 Z M 910 200 L 908 203 L 902 204 L 900 207 L 894 208 L 892 211 L 890 212 L 888 204 L 858 204 L 856 206 L 855 207 L 852 210 L 852 319 L 859 320 L 860 323 L 862 324 L 883 324 L 884 322 L 887 320 L 888 318 L 891 316 L 892 315 L 892 250 L 895 248 L 896 242 L 903 240 L 904 238 Q 906 234 915 236 L 916 239 L 923 240 L 924 247 L 927 248 L 928 250 L 928 319 L 931 320 L 932 323 L 934 324 L 959 324 L 960 322 L 963 320 L 964 319 L 964 234 L 962 232 Q 958 230 960 222 L 958 220 L 956 218 L 954 216 L 952 214 L 950 212 L 948 210 L 942 208 L 940 206 L 934 204 L 932 202 L 931 200 L 910 200 Z M 1350 200 L 1348 203 Q 1346 206 1338 204 L 1336 207 Q 1334 210 1326 208 L 1324 211 L 1322 212 L 1320 215 L 1314 216 L 1312 219 L 1310 220 L 1308 227 L 1306 228 L 1304 231 L 1302 232 L 1300 239 L 1298 240 L 1296 242 L 1296 287 L 1299 288 L 1300 295 L 1303 296 L 1304 303 L 1307 304 L 1308 307 L 1311 308 L 1312 311 L 1315 312 L 1316 315 L 1323 316 L 1324 319 L 1331 320 L 1332 323 L 1334 324 L 1347 324 L 1348 327 Q 1350 330 1359 328 L 1360 326 L 1362 324 L 1375 324 L 1376 322 Q 1378 318 1387 320 L 1388 318 L 1391 316 L 1392 314 L 1395 312 L 1396 310 L 1399 308 L 1400 306 L 1403 304 L 1404 302 L 1407 300 L 1408 294 L 1411 292 L 1412 286 L 1415 284 L 1416 283 L 1416 250 L 1414 248 Q 1410 246 1412 238 L 1410 236 L 1408 230 L 1406 228 L 1404 226 L 1402 224 L 1400 222 L 1398 220 L 1396 218 L 1394 216 L 1392 214 L 1386 212 L 1384 210 L 1378 208 L 1376 206 L 1375 204 L 1362 204 L 1360 202 Q 1358 198 1350 200 Z M 686 204 L 684 207 L 680 210 L 680 223 Q 686 225 684 235 L 687 236 L 688 238 L 688 255 L 691 256 Q 694 258 692 267 L 695 268 Q 698 270 696 279 L 699 280 L 700 282 L 700 299 L 703 300 L 704 302 L 704 315 L 707 316 L 708 319 L 711 320 L 712 323 L 714 324 L 743 324 L 744 322 L 747 320 L 748 314 L 751 312 L 752 311 L 752 294 L 755 292 Q 758 290 756 282 L 759 280 Q 762 278 760 270 L 763 268 Q 771 272 768 287 L 771 288 Q 774 290 772 299 L 775 300 L 776 302 L 776 319 L 783 320 L 784 323 L 786 324 L 811 324 L 812 322 L 819 320 Q 822 318 820 310 L 823 308 Q 826 306 824 298 L 827 296 L 828 295 L 828 278 L 831 276 Q 834 274 832 266 L 835 264 L 836 263 L 836 250 L 839 248 L 840 247 L 840 234 L 843 232 L 844 231 L 844 219 Q 849 217 848 210 L 846 208 L 844 206 L 843 204 L 814 204 L 812 207 L 810 208 Q 806 210 808 219 L 806 220 L 804 222 L 804 247 L 802 248 L 800 250 L 800 263 L 798 264 L 792 258 L 792 242 L 790 240 Q 786 238 788 230 L 786 228 L 784 227 L 784 214 L 780 211 L 780 204 L 750 204 L 748 207 L 746 208 Q 742 210 744 219 L 742 220 L 740 222 L 740 235 L 738 236 L 736 238 L 736 254 Q 731 255 732 263 L 730 264 Q 726 262 728 254 L 726 252 L 724 251 L 724 230 L 722 228 L 720 227 L 720 214 L 716 211 L 716 204 L 686 204 Z M 1602 204 L 1600 207 L 1592 208 L 1591 212 Q 1585 213 1585 211 L 1583 208 L 1554 208 L 1552 211 L 1550 212 L 1548 214 L 1548 315 L 1551 316 L 1552 319 L 1555 320 L 1556 323 L 1558 324 L 1579 324 L 1580 322 L 1587 320 L 1588 319 L 1588 250 L 1591 248 L 1592 246 L 1595 244 L 1596 242 L 1603 240 L 1604 238 L 1607 236 L 1608 239 L 1615 240 L 1616 243 L 1619 244 L 1620 247 L 1623 248 L 1624 250 L 1624 319 L 1627 320 L 1628 323 L 1630 324 L 1655 324 L 1656 322 L 1659 320 L 1660 318 L 1663 316 L 1664 315 L 1664 250 L 1662 248 L 1660 247 L 1660 230 L 1658 228 L 1656 226 L 1654 224 L 1652 218 L 1650 216 L 1648 214 L 1646 212 L 1644 210 Q 1642 206 1634 208 L 1632 206 L 1631 204 L 1602 204 Z M 1426 208 L 1424 210 L 1424 291 L 1427 292 Q 1430 294 1428 303 L 1431 304 L 1432 311 L 1435 312 L 1436 315 L 1439 316 L 1440 319 L 1447 320 L 1448 323 L 1450 324 L 1463 324 L 1464 327 Q 1466 330 1475 328 L 1476 326 Q 1478 322 1487 324 L 1488 322 L 1495 320 L 1496 318 L 1499 316 L 1503 321 L 1504 323 L 1506 324 L 1531 324 L 1532 322 L 1535 320 L 1536 319 L 1536 302 L 1539 300 Q 1542 298 1540 290 L 1538 288 L 1536 287 L 1536 210 L 1535 208 L 1502 208 L 1500 210 L 1500 275 L 1498 276 L 1496 283 L 1494 284 L 1492 287 L 1484 288 L 1483 291 Q 1483 293 1477 292 L 1476 290 Q 1476 287 1470 288 L 1468 286 L 1466 284 L 1464 278 L 1462 276 L 1460 275 L 1460 243 L 1464 240 Q 1466 235 1463 236 L 1460 234 L 1460 210 L 1459 208 L 1426 208 Z M 322 312 L 320 315 L 318 316 L 316 319 L 314 320 L 312 323 L 310 324 L 308 327 L 306 328 L 303 332 Q 293 329 296 339 L 294 340 L 292 342 L 292 359 L 295 360 L 296 363 L 299 364 L 300 367 L 303 368 L 304 371 L 307 372 L 308 375 L 311 376 L 312 379 L 315 380 L 316 383 L 319 384 L 320 387 L 323 388 L 324 391 L 327 392 L 328 395 L 332 398 Q 329 407 339 404 L 340 411 L 343 412 L 344 415 L 347 416 L 348 419 L 351 420 L 352 423 L 355 424 L 356 427 L 359 428 L 360 431 L 363 432 L 364 435 L 367 436 L 368 439 L 371 440 L 372 443 L 379 444 L 380 447 L 382 448 L 403 448 L 404 446 L 411 444 L 412 442 L 415 440 L 416 438 L 419 436 L 420 430 L 423 428 L 424 427 L 424 406 L 422 404 Q 418 402 420 394 L 414 392 L 412 390 L 410 388 L 408 380 L 400 379 Q 403 369 394 372 L 392 370 L 390 368 L 388 366 L 386 364 L 384 362 L 382 360 L 380 358 L 378 356 L 376 354 L 374 352 L 372 350 L 370 348 L 368 346 L 366 344 L 364 342 L 362 340 L 360 338 L 358 336 L 356 334 L 354 332 L 352 330 L 350 328 L 348 326 L 346 324 L 344 322 L 342 320 L 340 318 L 338 316 L 336 314 L 335 312 L 322 312 Z " /><path fill="rgb(0,0,0)" stroke="rgb(0,0,0)" stroke-width="1" opacity="0" d="M 1061.5 188 L 1074.5 188 L 1076 189.5 L 1077.5 196 L 1080 197.5 L 1078.5 200 L 1076 201.5 L 1074.5 208 L 1072 209.5 L 1070.5 211 L 1066.5 216 L 1064 214.5 L 1061.5 211 L 1060 209.5 L 1056 206.5 L 1056 193.5 L 1057.5 192 L 1060 190.5 L 1061.5 188 Z " /><path fill="rgb(0,0,0)" stroke="rgb(0,0,0)" stroke-width="1" opacity="0" d="M 0 212 L 4 213.5 L 4 226.5 L 6.5 229 L 8 229.5 L 8 246.5 L 12 249.5 L 13.5 256 L 16 257.5 Q 13.75 265.75 17.5 268 L 20 269.5 Q 17.75 277.75 21.5 280 L 24 281.5 L 25.5 288 L 28 289.5 L 29.5 296 L 32 297.5 L 33.5 300 L 36 301.5 Q 33.75 309.75 37.5 312 L 40 313.5 L 41.5 316 L 44 317.5 L 45.5 324 L 48 325.5 L 49.5 328 L 52 329.5 L 53.5 336 L 56 337.5 L 57.5 340 L 60 341.5 L 61.5 344 L 64 345.5 L 65.5 352 L 68 353.5 L 69.5 356 L 72 357.5 L 73.5 364 L 76 365.5 L 77.5 368 L 80 369.5 L 81.5 372 L 84 373.5 L 85.5 376 L 88 377.5 L 89.5 380 L 92 381.5 L 93.5 388 L 96 389.5 L 97.5 392 L 100 393.5 L 101.5 396 L 104 397.5 L 105.5 400 L 108 401.5 L 109.5 404 L 112 405.5 L 113.5 412 L 116 413.5 L 117.5 416 L 120 417.5 L 121.5 420 L 124 421.5 L 125.5 424 L 128 425.5 L 129.5 428 L 132 429.5 L 133.5 432 L 136 433.5 L 137.5 436 L 140 437.5 L 141.5 440 L 144 441.5 L 145.5 444 L 148 445.5 L 149.5 448 L 152 449.5 L 153.5 452 L 156 453.5 L 158.5 457 L 160 458.5 L 164 461.5 L 163.5 464 L 0 464 L 0 212 Z " /><path fill="rgb(0,0,0)" stroke="rgb(0,0,0)" stroke-width="1" opacity="0" d="M 605.5 236 L 618.5 236 L 620 237.5 L 621.5 240 L 624 241.5 L 625.5 244 L 632 245.5 Q 629.75 253.75 633.5 256 L 636 257.5 L 636 270.5 L 634.5 272 L 632 273.5 L 630.5 280 L 628 281.5 L 626.5 284 L 624 285.5 L 622.5 288 Q 614.25 285.75 612 289.5 L 610.5 292 L 608 290.5 L 606.5 288 L 600 286.5 L 598.5 284 L 592 282.5 L 590.5 276 L 588 274.5 L 588 249.5 L 589.5 248 L 592 246.5 L 593.5 244 L 596 242.5 L 597.5 240 L 604 238.5 L 605.5 236 Z " /><path fill="rgb(0,0,0)" stroke="rgb(0,0,0)" stroke-width="1" opacity="0" d="M 1353.5 236 L 1356 237.5 L 1357.5 240 Q 1365.75 237.75 1368 241.5 L 1369.5 244 L 1372 245.5 L 1373.5 248 L 1376 249.5 L 1377.5 256 L 1380 257.5 Q 1382.25 265.75 1378.5 268 L 1376 269.5 Q 1378.25 277.75 1374.5 280 L 1372 281.5 L 1370.5 284 L 1368 285.5 L 1366.5 288 Q 1359.5 286.5 1360 289.5 L 1359 292 Q 1352.63 293.5 1353 290.5 L 1350.5 288 Q 1342.25 290.25 1340 286.5 L 1338.5 284 L 1336 282.5 L 1334.5 276 L 1332 274.5 L 1332 253.5 L 1333.5 252 L 1336 250.5 L 1337.5 244 L 1344 242.5 L 1345.5 240 L 1352 238.5 L 1353.5 236 Z " /><path fill="rgb(0,0,0)" stroke="rgb(0,0,0)" stroke-width="1" opacity="0" d="M 1721.5 240 L 1742.5 240 L 1744 241.5 L 1745.5 244 L 1748 245.5 L 1749.5 248 L 1752 249.5 L 1753.5 256 L 1756 257.5 L 1756 270.5 L 1754.5 272 L 1752 273.5 L 1750.5 280 L 1748 281.5 L 1746.5 284 L 1744 285.5 L 1742.5 288 L 1736 289.5 L 1734.5 292 Q 1726.25 294.25 1724 290.5 L 1722.5 288 L 1716 286.5 L 1714.5 284 L 1712 282.5 L 1710.5 276 L 1708 274.5 L 1708 253.5 L 1709.5 252 L 1712 250.5 L 1713.5 244 L 1720 242.5 L 1721.5 240 Z " /><path fill="rgb(0,0,0)" stroke="rgb(0,0,0)" stroke-width="1" opacity="0" d="M 1793.5 244 L 1796 244.5 L 1796 256 L 1792 254.5 Q 1789.75 246.25 1793.5 244 Z " /><path fill="rgb(0,0,0)" stroke="rgb(0,0,0)" stroke-width="1" opacity="0" d="M 1053.5 256 L 1056 257.5 L 1058.5 261 L 1060 262.5 L 1064 265.5 L 1065.5 268 L 1068 269.5 L 1069.5 272 L 1072 273.5 L 1073.5 276 L 1076 277.5 Q 1080.89 279.11 1080 286.5 L 1072 289.5 L 1070.5 292 L 1057.5 292 L 1056 290.5 L 1054.5 288 L 1048 286.5 L 1046.5 280 L 1044 278.5 L 1044 265.5 L 1045.5 264 L 1048 262.5 L 1049.5 261 L 1053.5 256 Z " /><path fill="rgb(0,0,0)" stroke="rgb(0,0,0)" stroke-width="1" opacity="0" d="M 1793.5 268 L 1796 268.5 L 1796 280 L 1792 278.5 Q 1789.75 270.25 1793.5 268 Z " /><path fill="rgb(0,0,0)" stroke="rgb(0,0,0)" stroke-width="1" opacity="0" d="M 1793.5 308 Q 1798.08 306.8 1796 312 L 1792 310.5 L 1793.5 308 Z " /><path fill="rgb(31,107,250)" stroke="rgb(31,107,250)" stroke-width="1" opacity="1" d="M 1765.5 156 L 1786.5 156 L 1788 157.5 L 1789.5 159 L 1792 161.5 L 1792 174.5 L 1793.5 176 L 1796 176.5 L 1796 244 L 1792 245.5 Q 1789.75 253.75 1793.5 256 L 1796 256.5 L 1796 268 L 1792 269.5 Q 1789.75 277.75 1793.5 280 L 1796 280.5 L 1796 308 L 1792 309.5 L 1793.5 312 Q 1798.08 310.8 1796 316 L 1792 317 L 1789.5 321 L 1788 322.5 L 1786.5 324 L 1761.5 324 L 1760 321 L 1756 318.5 L 1754.5 316 L 1752 317.5 L 1750.5 320 L 1744 321.5 L 1742.5 324 Q 1734.25 321.75 1732 325.5 L 1730.5 328 Q 1722.25 330.25 1720 326.5 L 1718.5 324 L 1705.5 324 L 1704 322.5 L 1702.5 320 L 1696 318.5 L 1694.5 316 L 1692 314.5 L 1690.5 312 Q 1680.75 315.25 1684 305.5 L 1680 302.5 L 1678.5 300 L 1676 298.5 Q 1678.25 290.25 1674.5 288 L 1672 286.5 Q 1673 279.5 1668 278.5 L 1668 253.5 L 1672 249.5 Q 1670 242 1673.5 240 L 1676 238.5 Q 1673.75 230.25 1677.5 228 L 1680 226.5 L 1681.5 224 L 1684 222.5 L 1685.5 220 L 1688 218.5 L 1689.5 216 L 1692 214.5 L 1693.5 212 L 1700 210.5 L 1701.5 208 L 1708 206.5 L 1709.5 204 L 1738.5 204 L 1740 205.5 L 1741.5 208 Q 1748.5 206.5 1748 209.5 L 1749 212 Q 1755.37 213.5 1755 210.5 L 1756 161.5 L 1757.5 160 L 1764 158.5 L 1765.5 156 Z M 1722 240 L 1720 243 L 1714 244 L 1712 251 L 1710 252 L 1708 254 L 1708 275 L 1711 276 L 1712 283 L 1715 284 L 1716 287 L 1723 288 L 1724 291 Q 1726 294 1735 292 L 1736 290 L 1743 288 L 1744 286 L 1747 284 L 1748 282 L 1751 280 L 1752 274 L 1755 272 L 1756 271 L 1756 258 L 1754 256 L 1752 250 L 1750 248 L 1748 246 L 1746 244 L 1744 242 L 1743 240 L 1722 240 Z " /><path fill="rgb(31,107,250)" stroke="rgb(31,107,250)" stroke-width="1" opacity="1" d="M 1197.5 160 L 1294.5 160 L 1296 161.5 L 1297.5 164 L 1300 165.5 L 1300 190.5 L 1298.5 192 L 1296 193.5 L 1294.5 196 L 1233.5 196 L 1232 197.5 L 1232 226.5 L 1233.5 228 L 1286.5 228 L 1288 229.5 L 1288 258.5 L 1286.5 260 L 1284 261.5 L 1282.5 264 L 1233.5 264 L 1232 265.5 L 1232 318.5 L 1230.5 320 L 1228 321.5 L 1226.5 324 L 1201.5 324 L 1200 322.5 L 1198.5 320 L 1192 318.5 L 1192 165.5 L 1193.5 164 L 1196 162.5 L 1197.5 160 Z " /><path fill="rgb(31,107,250)" stroke="rgb(31,107,250)" stroke-width="1" opacity="1" d="M 1349.5 200 Q 1357.75 197.75 1360 201.5 L 1361.5 204 L 1374.5 204 L 1376 205.5 L 1377.5 208 L 1384 209.5 L 1385.5 212 L 1392 213.5 L 1393.5 216 L 1396 217.5 L 1397.5 220 L 1400 221.5 L 1401.5 224 L 1404 225.5 L 1405.5 228 L 1408 229.5 L 1409.5 236 L 1412 237.5 Q 1409.75 245.75 1413.5 248 L 1416 249.5 L 1416 282.5 L 1414.5 284 L 1412 285.5 L 1410.5 292 L 1408 293.5 L 1406.5 300 L 1404 301.5 L 1402.5 304 L 1400 305.5 L 1398.5 308 L 1396 309.5 L 1394.5 312 L 1392 313.5 L 1390.5 316 L 1388 317.5 L 1386.5 320 Q 1378.25 317.75 1376 321.5 L 1374.5 324 L 1361.5 324 L 1360 325.5 L 1358.5 328 Q 1350.25 330.25 1348 326.5 L 1346.5 324 L 1333.5 324 L 1332 322.5 L 1330.5 320 L 1324 318.5 L 1322.5 316 L 1316 314.5 L 1314.5 312 L 1312 310.5 L 1310.5 308 L 1308 306.5 L 1306.5 304 L 1304 302.5 L 1302.5 296 L 1300 294.5 L 1298.5 288 L 1296 286.5 L 1296 241.5 L 1297.5 240 L 1300 238.5 L 1301.5 232 L 1304 230.5 L 1305.5 228 L 1308 226.5 L 1309.5 220 L 1312 218.5 L 1313.5 216 L 1320 214.5 L 1321.5 212 L 1324 210.5 L 1325.5 208 Q 1333.75 210.25 1336 206.5 L 1337.5 204 Q 1345.75 206.25 1348 202.5 L 1349.5 200 Z M 1354 236 L 1352 239 L 1346 240 L 1344 243 L 1338 244 L 1336 251 L 1334 252 L 1332 254 L 1332 275 L 1335 276 L 1336 283 L 1339 284 L 1340 287 Q 1342 290 1351 288 L 1353 291 Q 1353 293 1359 292 L 1360 290 Q 1359 287 1367 288 L 1368 286 L 1371 284 L 1372 282 L 1375 280 Q 1378 278 1376 270 L 1379 268 Q 1382 266 1380 258 L 1378 256 L 1376 250 L 1374 248 L 1372 246 L 1370 244 L 1368 242 Q 1366 238 1358 240 L 1356 238 L 1354 236 Z " /><path fill="rgb(31,107,250)" stroke="rgb(31,107,250)" stroke-width="1" opacity="1" d="M 1601.5 204 L 1630.5 204 L 1632 205.5 L 1633.5 208 Q 1641.75 205.75 1644 209.5 L 1645.5 212 L 1648 213.5 L 1649.5 216 L 1652 217.5 L 1653.5 224 L 1656 225.5 L 1657.5 228 L 1660 229.5 L 1660 246.5 L 1661.5 248 L 1664 249.5 L 1664 314.5 L 1662.5 316 L 1660 317.5 L 1658.5 320 L 1656 321.5 L 1654.5 324 L 1629.5 324 L 1628 322.5 L 1626.5 320 L 1624 318.5 L 1624 249.5 L 1622.5 248 L 1620 246.5 L 1618.5 244 L 1616 242.5 L 1614.5 240 L 1608 238.5 L 1606.5 236 L 1604 237.5 L 1602.5 240 L 1596 241.5 L 1594.5 244 L 1592 245.5 L 1590.5 248 L 1588 249.5 L 1588 318.5 L 1586.5 320 L 1580 321.5 L 1578.5 324 L 1557.5 324 L 1556 322.5 L 1554.5 320 L 1552 318.5 L 1550.5 316 L 1548 314.5 L 1548 213.5 L 1549.5 212 L 1552 210.5 L 1553.5 208 L 1582.5 208 L 1585 210.5 Q 1584.62 213.5 1591 212 L 1592 208 L 1600 206.5 L 1601.5 204 Z " /><path fill="rgb(31,107,250)" stroke="rgb(31,107,250)" stroke-width="1" opacity="1" d="M 1425.5 208 L 1458.5 208 L 1460 209.5 L 1460 233.5 L 1462.5 236 Q 1465.88 235.2 1464 240 L 1460 242.5 L 1460 274.5 L 1461.5 276 L 1464 277.5 L 1465.5 284 L 1468 285.5 L 1469.5 288 Q 1476.5 286.5 1476 289.5 L 1477 292 Q 1483.38 293.5 1483 290.5 L 1484 288 L 1492 286.5 L 1493.5 284 L 1496 282.5 L 1497.5 276 L 1500 274.5 L 1500 209.5 L 1501.5 208 L 1534.5 208 L 1536 209.5 L 1536 286.5 L 1537.5 288 L 1540 289.5 Q 1542.25 297.75 1538.5 300 L 1536 301.5 L 1536 318.5 L 1534.5 320 L 1532 321.5 L 1530.5 324 L 1505.5 324 L 1504 322.5 L 1502.5 321 L 1498.5 316 L 1496 317.5 L 1494.5 320 L 1488 321.5 L 1486.5 324 Q 1478.25 321.75 1476 325.5 L 1474.5 328 Q 1466.25 330.25 1464 326.5 L 1462.5 324 L 1449.5 324 L 1448 322.5 L 1446.5 320 L 1440 318.5 L 1438.5 316 L 1436 314.5 L 1434.5 312 L 1432 310.5 L 1430.5 304 L 1428 302.5 Q 1430.25 294.25 1426.5 292 L 1424 290.5 L 1424 209.5 L 1425.5 208 Z " /><path fill="rgb(253,178,52)" stroke="rgb(253,178,52)" stroke-width="1" opacity="1" d="M 240.5 136 L 247.5 136 L 257 141.5 L 258.5 143 L 261.5 148 L 264 149.5 L 266 163.5 Q 262.75 164.95 264 170 L 262 171.5 L 258.5 176 L 256 177.5 L 254.5 180 L 252 181.5 L 250.5 184 L 248 185.5 L 246.5 188 L 244 189.5 L 242.5 192 L 240 193.5 L 238.5 196 L 236 197.5 L 234.5 200 L 232 201.5 L 230.5 205 L 229 206.5 L 220 217 L 218 218.5 L 217 221 L 213 223.5 L 206.5 232 L 204 233.5 L 202.5 236 L 200 237.5 L 198.5 240 L 196 241.5 L 194.5 244 L 192 245.5 L 190.5 248 L 188 249.5 L 186.5 252 L 184 253.5 L 182.5 256 L 180 257.5 L 178.5 260 L 169.5 264 L 162.5 264 L 152 258.5 L 150.5 256 L 148 254.5 L 146.5 252 L 144 250.5 L 142.5 248 L 140 246.5 L 138.5 244 L 136 242.5 L 134.5 240 L 132 238.5 L 126.5 232 L 124 230.5 L 122 226 L 115 220.5 L 110.5 212 L 108 210.5 L 108 197.5 L 109.5 196 L 112 194.5 L 112 190.5 L 118.5 184 L 136.5 183 L 145 189.5 L 146.5 191 L 158.5 204 L 160 205.5 L 166.5 211 L 173.5 203 L 175 201.5 L 180 198.5 Q 178.5 194.13 181.5 195 L 183 192 L 187 189.5 L 191 183 L 194 181.5 L 201.5 172 L 204 170.5 L 205.5 168 L 208 166.5 L 209.5 164 L 212 162.5 L 213.5 160 L 216 158.5 L 217.5 156 L 220 154.5 L 221.5 152 L 224 150.5 L 225.5 147 L 228 145.5 L 229.5 144 L 231 140 L 240.5 136 Z " /><path fill="rgb(255,255,255)" stroke="rgb(255,255,255)" stroke-width="1" opacity="1" d="M 168 0 L 195.5 0 L 196 2.5 L 197.5 4 L 218.5 4 L 220 5.5 L 221.5 8 L 238.5 8 L 240 9.5 L 241.5 12 Q 249.75 9.75 252 13.5 L 253.5 16 L 260 17.5 L 261.5 20 L 268 21.5 L 269.5 24 L 276 25.5 L 277.5 28 L 284 29.5 L 285.5 32 L 288 33.5 L 289.5 36 L 296 37.5 L 297.5 40 L 300 41.5 L 301.5 44 L 304 45.5 L 305.5 48 L 308 49.5 L 309.5 52 L 312 53.5 L 313.5 56 L 316 57.5 L 317.5 60 L 320 61.5 L 321.5 64 L 324 65.5 L 325.5 68 L 328 69.5 L 329.5 72 L 332 73.5 L 333.5 76 L 336 77.5 L 337.5 84 L 340 85.5 L 341.5 92 L 344 93.5 L 345.5 100 L 348 101.5 L 349.5 108 L 352 109.5 L 353.5 116 L 356 117.5 L 356 130.5 L 357.5 132 L 360 133.5 Q 357.75 141.75 361.5 144 L 364 145.5 L 364 218.5 L 362.5 220 L 360 221.5 Q 362.25 229.75 358.5 232 L 356 233.5 L 356 246.5 L 354.5 248 L 352 249.5 L 350.5 256 L 348 257.5 L 346.5 264 L 344 265.5 L 342.5 272 L 340 273.5 L 338.5 276 L 336 277.5 L 334.5 284 L 332 285.5 L 330.5 288 L 328 289.5 L 326.5 296 L 324 297.5 L 322.5 300 L 320 301.5 L 318.5 304 L 316 305.5 L 314.5 308 L 312 309.5 L 310.5 312 L 308 313.5 L 306.5 316 L 304 317.5 Q 305.39 322.92 297.5 320 L 294.5 324 L 292 325.5 L 290.5 328 L 284 326.5 L 282.5 324 L 280 322.5 L 278.5 320 L 276 318.5 L 274.5 316 L 272 314.5 L 270.5 312 L 268 310.5 L 266.5 308 L 264 306.5 L 262.5 300 L 260 298.5 L 258.5 296 L 252 292 Q 250.12 287.2 253.5 288 L 260 282.5 L 261.5 280 L 264 278.5 L 265.5 276 L 268 274.5 L 269.5 272 L 272 270.5 L 273.5 268 L 276 266.5 L 277.5 264 L 280 262.5 L 281.5 256 L 284 254.5 L 285.5 252 L 288 250.5 L 289.5 248 L 292 246.5 Q 289.75 238.25 293.5 236 L 296 234.5 L 297.5 228 L 300 226.5 L 300 213.5 L 301.5 212 L 304 210.5 L 304 189.5 L 305.5 188 L 308 186.5 Q 310.25 178.25 306.5 176 L 304 174.5 L 304 157.5 L 302.5 156 L 300 154.5 L 300 141.5 L 298.5 140 L 296 138.5 L 294.5 132 L 292 130.5 Q 294.25 122.25 290.5 120 L 288 118.5 L 286.5 116 L 284 114.5 L 282.5 112 L 280 110.5 L 278.5 104 L 276 102.5 L 274.5 100 L 272 98.5 L 270.5 96 L 268 94.5 L 266.5 92 L 264 90.5 L 262.5 88 L 256 86.5 L 254.5 84 L 252 82.5 L 250.5 80 L 244 78.5 L 242.5 76 L 236 74.5 L 234.5 72 L 228 70.5 L 226.5 68 L 220 66.5 L 218.5 64 L 149.5 64 L 148 65.5 L 146.5 68 L 144 69.5 L 142.5 72 L 140 73.5 L 138.5 76 L 136 77.5 L 136 86.5 Q 131.25 87.25 132 93.5 L 136 97.5 L 137.5 104 L 140 105.5 L 141.5 108 Q 149.75 105.75 152 109.5 L 153.5 112 L 160 113.5 L 161.5 116 L 164 117.5 L 164 142.5 L 162.5 144 L 160 145.5 L 158.5 148 L 156 149.5 L 154.5 152 L 152 153.5 L 150.5 156 L 144 157.5 L 142.5 160 L 113.5 160 L 112 158.5 L 110.5 156 L 108 154.5 L 106.5 152 L 104 150.5 L 102.5 144 L 100 142.5 L 100 129.5 L 98.5 128 L 92 126.5 L 90.5 124 Q 82.25 121.75 80 125.5 L 78.5 128 L 76 129.5 L 74.5 132 L 72 133.5 L 70.5 140 L 68 141.5 Q 70.25 149.75 66.5 152 L 64 153.5 L 64 166.5 L 62.5 168 L 60 169.5 L 60 198.5 L 61.5 200 L 64 201.5 L 64 218.5 L 65.5 220 L 68 221.5 Q 65.75 229.75 69.5 232 L 72 233.5 L 73.5 240 L 76 241.5 L 77.5 248 L 80 249.5 L 81.5 256 L 84 257.5 L 85.5 260 L 88 261.5 L 89.5 264 L 92 265.5 L 93.5 268 L 96 269.5 L 97.5 272 L 100 273.5 L 101.5 276 L 104 277.5 L 105.5 280 L 108 281.5 L 109.5 284 L 116 285.5 L 117.5 288 L 120 289.5 L 121.5 292 L 128 293.5 L 129.5 296 L 136 297.5 L 137.5 300 L 144 301.5 L 145.5 304 L 166.5 304 L 168 305.5 L 169.5 308 L 194.5 308 L 196 306.5 L 197.5 304 L 222.5 304 L 224 302.5 L 225.5 300 L 232 298.5 L 233.5 296 Q 241.75 293.75 244 297.5 L 245.5 300 L 248 301.5 L 249.5 304 L 252 305.5 L 253.5 312 L 256 313.5 L 257.5 316 L 260 317.5 L 261.5 320 L 264 321.5 L 265.5 324 L 268 325.5 L 269.5 332 L 272 333.5 L 273.5 336 L 276 337.5 L 277.5 340 L 280 341.5 L 280 358.5 L 278.5 360 L 276 361.5 L 274.5 364 L 272 365.5 L 270.5 368 L 268 369.5 L 266.5 376 L 264 377.5 L 262.5 380 L 260 381.5 L 258.5 384 L 256 385.5 L 254.5 388 L 252 389.5 L 250.5 396 L 248 397.5 L 246.5 400 L 244 401.5 L 242.5 404 L 240 405.5 L 238.5 408 L 236 409.5 L 234.5 412 L 232 413.5 L 230.5 416 L 228 417.5 L 226.5 420 L 224 421.5 L 222.5 424 L 220 425.5 L 218.5 428 L 216 429.5 L 214.5 432 L 212 433.5 L 210.5 436 L 208 437.5 L 206.5 440 L 204 441.5 L 202.5 444 L 200 445.5 L 198.5 448 L 196 449.5 L 194.5 452 L 192 453.5 L 189.5 457 L 188 458.5 L 184 461.5 L 183.5 464 L 164 464 L 162.5 460 L 160 458.5 L 158.5 457 L 154.5 452 L 152 450.5 L 150.5 448 L 148 446.5 L 146.5 444 L 144 442.5 L 142.5 440 L 140 438.5 L 138.5 436 L 136 434.5 L 134.5 432 L 132 430.5 L 130.5 428 L 128 426.5 L 126.5 424 L 124 422.5 L 122.5 420 L 120 418.5 L 118.5 416 L 116 414.5 L 114.5 412 L 112 410.5 L 110.5 404 L 108 402.5 L 106.5 400 L 104 398.5 L 102.5 396 L 100 394.5 L 98.5 392 L 96 390.5 L 94.5 388 L 92 386.5 L 90.5 380 L 88 378.5 L 86.5 376 L 84 374.5 L 82.5 372 L 80 370.5 L 78.5 368 L 76 366.5 L 74.5 364 L 72 362.5 L 70.5 356 L 68 354.5 L 66.5 352 L 64 350.5 L 62.5 344 L 60 342.5 L 58.5 340 L 56 338.5 L 54.5 336 L 52 334.5 L 50.5 328 L 48 326.5 L 46.5 324 L 44 322.5 L 42.5 316 L 40 314.5 L 38.5 312 L 36 310.5 Q 38.25 302.25 34.5 300 L 32 298.5 L 30.5 296 L 28 294.5 L 26.5 288 L 24 286.5 L 22.5 280 L 20 278.5 Q 22.25 270.25 18.5 268 L 16 266.5 Q 18.25 258.25 14.5 256 L 12 254.5 L 10.5 248 L 8 246.5 L 8 229.5 L 6.5 229 L 4 226.5 L 4 213.5 L 2.5 212 L 0 211.5 L 0 156 L 4 154.5 L 4 141.5 L 6.5 139 L 8 138.5 L 8 125.5 L 12 122.5 L 13.5 116 L 16 114.5 Q 13.75 106.25 17.5 104 L 20 102.5 L 21.5 96 L 24 94.5 L 25.5 88 L 28 86.5 L 29.5 84 L 32 82.5 L 33.5 76 L 36 74.5 L 37.5 72 L 40 70.5 L 41.5 68 L 44 66.5 L 45.5 64 L 48 62.5 L 49.5 60 L 52 58.5 L 53.5 56 L 56 54.5 L 57.5 52 L 60 50.5 L 61.5 48 L 64 46.5 L 65.5 44 L 68 42.5 L 69.5 40 L 72 38.5 L 73.5 36 L 80 34.5 L 81.5 32 L 84 30.5 L 85.5 28 L 92 26.5 L 93.5 24 L 96 22.5 L 97.5 20 Q 105.75 22.25 108 18.5 L 109.5 16 L 116 14.5 L 117.5 12 Q 125.75 14.25 128 10.5 L 129.5 8 L 142.5 8 L 144 6.5 L 145.5 4 L 166.5 4 L 168 2.5 L 168 0 Z " /><path fill="rgb(255,255,255)" stroke="rgb(255,255,255)" stroke-width="1" opacity="1" d="M 237.5 136 L 240 136.5 L 236.5 138 L 237.5 136 Z " /><path fill="rgb(255,255,255)" stroke="rgb(255,255,255)" stroke-width="1" opacity="1" d="M 248.5 136 L 252 137.5 L 250.5 138 L 248.5 136 Z " /><path fill="rgb(255,255,255)" stroke="rgb(255,255,255)" stroke-width="1" opacity="1" d="M 229.5 140 L 231 142.5 L 228 144 L 226.5 147 L 224.5 148 L 224 145.5 L 228 142.5 L 229.5 140 Z " /><path fill="rgb(255,255,255)" stroke="rgb(255,255,255)" stroke-width="1" opacity="1" d="M 256.5 140 Q 261.75 138.25 260 143.5 L 258.5 143 L 257 141.5 L 256.5 140 Z " /><path fill="rgb(255,255,255)" stroke="rgb(255,255,255)" stroke-width="1" opacity="1" d="M 265 152 L 268 153.5 Q 270.25 161.75 266.5 164 L 265 152 Z " /><path fill="rgb(255,255,255)" stroke="rgb(255,255,255)" stroke-width="1" opacity="1" d="M 445.5 152 L 466.5 152 L 468 153.5 L 469.5 156 L 476 157.5 L 476 170.5 L 477.5 172 L 480 173.5 L 478.5 180 L 476 181.5 L 477.5 184 L 480 185.5 L 480 214.5 L 478.5 216 L 476 217.5 L 477.5 220 L 480 221.5 L 478.5 228 L 476 229.5 L 476 241.5 L 478.5 244 L 480 246.5 L 476 249.5 L 477.5 252 L 480 253.5 L 480 270.5 Q 475.25 271.25 476 277.5 L 481.5 284 L 542.5 284 L 544 285.5 L 544 318.5 L 542.5 320 L 540 321.5 L 538.5 324 L 441.5 324 L 440 322.5 L 438.5 320 L 436 318.5 L 436 157.5 L 437.5 156 L 444 154.5 L 445.5 152 Z " /><path fill="rgb(255,255,255)" stroke="rgb(255,255,255)" stroke-width="1" opacity="1" d="M 1061.5 152 Q 1069.75 149.75 1072 153.5 L 1073.5 156 L 1086.5 156 L 1088 157.5 L 1089.5 160 L 1096 161.5 L 1097.5 164 L 1100 165.5 L 1101.5 168 L 1104 169.5 L 1105.5 172 L 1108 173.5 L 1109.5 176 L 1112 177.5 L 1112 214.5 L 1110.5 216 L 1108 217.5 L 1106.5 224 L 1104 225.5 L 1102.5 228 L 1100 229.5 L 1098.5 232 L 1096 233.5 Q 1097.39 238.92 1089.5 236 L 1088 238.5 L 1092 241.5 L 1093.5 248 L 1096 249.5 L 1097.5 252 L 1101 254.5 Q 1100.42 257.25 1106.5 256 L 1109.5 248 L 1112 246.5 L 1113.5 244 L 1116 242.5 L 1116 236 L 1130.5 236 L 1133.5 240 L 1140 241.5 L 1141.5 244 L 1144 245.5 L 1145.5 248 L 1148 249.5 L 1146.5 256 L 1144 257.5 L 1142.5 264 L 1140 265.5 L 1138.5 272 L 1136 273.5 L 1134.5 276 L 1132 277.5 L 1130.5 284 L 1128 285.5 L 1129.5 288 L 1132 289.5 L 1133.5 292 L 1136 293.5 L 1137.5 296 L 1140 297.5 L 1141.5 300 L 1144 301.5 L 1145.5 304 L 1148 305.5 L 1149.5 308 L 1152 309.5 Q 1154.25 317.75 1150.5 320 L 1148 321.5 L 1146.5 324 L 1117.5 324 L 1116 322.5 L 1114.5 320 Q 1104.75 323.25 1108 313.5 L 1101 312 L 1098.5 316 L 1096 317.5 L 1094.5 320 Q 1086.25 317.75 1084 321.5 L 1082.5 324 L 1069.5 324 L 1068 325.5 L 1066.5 328 L 1053.5 328 L 1052 326.5 L 1050.5 324 Q 1042.25 326.25 1040 322.5 L 1038.5 320 Q 1030.25 322.25 1028 318.5 L 1026.5 316 L 1024 314.5 L 1022.5 312 L 1020 310.5 L 1018.5 308 L 1016 306.5 L 1014.5 304 L 1012 302.5 L 1010.5 296 L 1008 294.5 L 1006.5 288 L 1004 286.5 L 1004 265.5 L 1005.5 264 L 1008 262.5 L 1009.5 256 L 1012 254.5 L 1013.5 248 L 1016 246.5 L 1017.5 244 L 1020 242.5 Q 1016.75 232.75 1026.5 236 L 1029.5 232 L 1032 230.5 L 1030.5 228 L 1028 226.5 L 1026.5 224 L 1024 222.5 L 1022.5 216 L 1020 214.5 L 1020 181.5 L 1021.5 180 L 1024 178.5 L 1025.5 176 L 1028 174.5 L 1029.5 168 L 1032 166.5 L 1033.5 164 L 1040 162.5 L 1041.5 160 L 1048 158.5 L 1049.5 156 Q 1057.75 158.25 1060 154.5 L 1061.5 152 Z M 1062 188 L 1060 191 L 1058 192 L 1056 194 L 1056 207 L 1060 210 L 1062 211 L 1064 215 L 1067 216 L 1071 211 L 1072 210 L 1075 208 L 1076 202 L 1079 200 L 1080 198 L 1078 196 L 1076 190 L 1075 188 L 1062 188 Z M 1054 256 L 1050 261 L 1048 263 L 1046 264 L 1044 266 L 1044 279 L 1047 280 L 1048 287 L 1055 288 L 1056 291 L 1058 292 L 1071 292 L 1072 290 L 1080 287 Q 1081 279 1076 278 L 1074 276 L 1072 274 L 1070 272 L 1068 270 L 1066 268 L 1064 266 L 1060 263 L 1059 261 L 1056 258 L 1054 256 Z " /><path fill="rgb(255,255,255)" stroke="rgb(255,255,255)" stroke-width="1" opacity="1" d="M 125.5 180 Q 133.75 177.75 136 181.5 L 135.5 183 L 124 183 L 125.5 180 Z " /><path fill="rgb(255,255,255)" stroke="rgb(255,255,255)" stroke-width="1" opacity="1" d="M 193.5 180 L 194 181.5 L 192 182.5 L 193.5 180 Z " /><path fill="rgb(255,255,255)" stroke="rgb(255,255,255)" stroke-width="1" opacity="1" d="M 140.5 184 L 144 185.5 L 145.5 188 L 148 189.5 L 149.5 192 L 152 193.5 L 153.5 196 L 156 197.5 L 157.5 200 L 160 201.5 L 161.5 203 L 165.5 208 L 168 206.5 L 170.5 203 L 172 201.5 L 175.5 200 L 175 201.5 L 173.5 203 L 166.5 211 L 160 205.5 L 158.5 204 L 146.5 191 L 145 189.5 L 140.5 184 Z " /><path fill="rgb(255,255,255)" stroke="rgb(255,255,255)" stroke-width="1" opacity="1" d="M 189.5 184 L 191 184.5 L 184.5 192 L 183 193.5 L 180 195 L 181.5 192 L 184 190.5 L 185.5 188 L 188 186.5 L 189.5 184 Z " /><path fill="rgb(255,255,255)" stroke="rgb(255,255,255)" stroke-width="1" opacity="1" d="M 589.5 200 L 618.5 200 L 620 201.5 L 621.5 204 L 628 205.5 L 629.5 208 Q 637.75 210.25 640 206.5 L 641.5 204 L 670.5 204 L 672 205.5 L 673.5 207 L 676 209.5 L 676 314.5 L 672 317.5 L 670.5 320 L 668 321.5 L 666.5 324 L 645.5 324 L 644 322.5 L 642.5 320 L 636 318.5 L 634.5 316 L 632 317.5 L 630.5 320 L 624 321.5 L 622.5 324 Q 614.25 321.75 612 325.5 L 610.5 328 L 597.5 328 L 596 326.5 L 594.5 324 Q 586.25 326.25 584 322.5 L 582.5 320 Q 574.25 322.25 572 318.5 L 570.5 316 L 568 314.5 L 566.5 312 L 564 310.5 L 562.5 308 L 560 306.5 L 558.5 304 L 556 302.5 Q 558.25 294.25 554.5 292 L 548 286.5 L 548 241.5 L 549.5 240 L 552 238.5 L 553.5 232 L 556 230.5 L 557.5 224 L 560 222.5 L 561.5 220 L 564 218.5 L 565.5 216 L 568 214.5 L 569.5 212 L 572 210.5 L 573.5 208 L 580 206.5 L 581.5 204 L 588 202.5 L 589.5 200 Z M 606 236 L 604 239 L 598 240 L 596 243 L 594 244 L 592 247 L 590 248 L 588 250 L 588 275 L 591 276 L 592 283 L 599 284 L 600 287 L 607 288 L 608 291 L 611 292 L 612 290 Q 614 286 623 288 L 624 286 L 627 284 L 628 282 L 631 280 L 632 274 L 635 272 L 636 271 L 636 258 L 634 256 Q 630 254 632 246 L 626 244 L 624 242 L 622 240 L 620 238 L 619 236 L 606 236 Z " /><path fill="rgb(255,255,255)" stroke="rgb(255,255,255)" stroke-width="1" opacity="1" d="M 909.5 200 L 930.5 200 L 932 201.5 L 933.5 204 L 940 205.5 L 941.5 208 L 948 209.5 L 949.5 212 L 952 213.5 L 953.5 216 L 956 217.5 L 957.5 220 L 960 221.5 Q 957.75 229.75 961.5 232 L 964 233.5 L 964 318.5 L 962.5 320 L 960 321.5 L 958.5 324 L 933.5 324 L 932 322.5 L 930.5 320 L 928 318.5 L 928 249.5 L 926.5 248 L 924 246.5 L 922.5 240 L 916 238.5 L 914.5 236 Q 906.25 233.75 904 237.5 L 902.5 240 L 896 241.5 L 894.5 248 L 892 249.5 L 892 314.5 L 890.5 316 L 888 317.5 L 886.5 320 L 884 321.5 L 882.5 324 L 861.5 324 L 860 322.5 L 858.5 320 L 852 318.5 L 852 209.5 L 854.5 207 L 856 205.5 L 857.5 204 L 888 204 L 889.5 212 L 892 210.5 L 893.5 208 L 900 206.5 L 901.5 204 L 908 202.5 L 909.5 200 Z " /><path fill="rgb(255,255,255)" stroke="rgb(255,255,255)" stroke-width="1" opacity="1" d="M 231.5 204 L 232 206.5 L 228 209.5 L 226.5 212 L 224 213.5 L 222.5 216 L 220 217.5 L 218.5 220 L 217 219.5 L 218 217 L 220 215.5 L 229 205 L 231.5 204 Z " /><path fill="rgb(255,255,255)" stroke="rgb(255,255,255)" stroke-width="1" opacity="1" d="M 685.5 204 L 715.5 204 L 716 210.5 L 720 213.5 L 720 226.5 L 721.5 228 L 724 229.5 L 724 250.5 L 725.5 252 L 728 253.5 Q 725.75 261.75 729.5 264 L 732 262.5 Q 730.75 254.75 736 253.5 L 736 237.5 L 737.5 236 L 740 234.5 L 740 221.5 L 741.5 220 L 744 218.5 Q 741.75 210.25 745.5 208 L 748 206.5 L 749.5 204 L 779.5 204 L 780 210.5 L 784 213.5 L 784 226.5 L 785.5 228 L 788 229.5 Q 785.75 237.75 789.5 240 L 792 241.5 L 792 257.5 L 797.5 264 L 800 262.5 L 800 249.5 L 801.5 248 L 804 246.5 L 804 221.5 L 805.5 220 L 808 218.5 Q 805.75 210.25 809.5 208 L 812 206.5 L 813.5 204 L 842.5 204 L 844 205.5 L 845.5 208 L 848 209.5 Q 849.25 217.25 844 218.5 L 844 230.5 L 842.5 232 L 840 233.5 L 840 246.5 L 838.5 248 L 836 249.5 L 836 262.5 L 834.5 264 L 832 265.5 Q 834.25 273.75 830.5 276 L 828 277.5 L 828 294.5 L 826.5 296 L 824 297.5 Q 826.25 305.75 822.5 308 L 820 309.5 Q 822.25 317.75 818.5 320 L 812 321.5 L 810.5 324 L 785.5 324 L 784 322.5 L 782.5 320 L 776 318.5 L 776 301.5 L 774.5 300 L 772 298.5 Q 774.25 290.25 770.5 288 L 768 286.5 Q 770.75 271.75 762.5 268 L 760 269.5 Q 762.25 277.75 758.5 280 L 756 281.5 Q 758.25 289.75 754.5 292 L 752 293.5 L 752 310.5 L 750.5 312 L 748 313.5 L 746.5 320 L 744 321.5 L 742.5 324 L 713.5 324 L 712 322.5 L 710.5 320 L 708 318.5 L 706.5 316 L 704 314.5 L 704 301.5 L 702.5 300 L 700 298.5 L 700 281.5 L 698.5 280 L 696 278.5 Q 698.25 270.25 694.5 268 L 692 266.5 Q 694.25 258.25 690.5 256 L 688 254.5 L 688 237.5 L 686.5 236 L 684 234.5 Q 686 224.5 680 222.5 L 680 209.5 L 684 207 L 685.5 204 Z " /><path fill="rgb(255,255,255)" stroke="rgb(255,255,255)" stroke-width="1" opacity="1" d="M 112.5 217 L 114.5 220 L 112 218.5 L 112.5 217 Z " /><path fill="rgb(255,255,255)" stroke="rgb(255,255,255)" stroke-width="1" opacity="1" d="M 215.5 221 L 216 222.5 L 213.5 224 L 215.5 221 Z " /><path fill="rgb(255,255,255)" stroke="rgb(255,255,255)" stroke-width="1" opacity="1" d="M 156 261 L 162 263.5 L 157.5 264 L 156 261 Z " /><path fill="rgb(255,255,255)" stroke="rgb(255,255,255)" stroke-width="1" opacity="1" d="M 173.5 261 L 176 262.5 L 170.5 264 L 171.5 262 L 173.5 261 Z " /><path fill="rgb(255,255,255)" stroke="rgb(255,255,255)" stroke-width="1" opacity="1" d="M 321.5 312 L 334.5 312 L 336 313.5 L 337.5 316 L 340 317.5 L 341.5 320 L 344 321.5 L 345.5 324 L 348 325.5 L 349.5 328 L 352 329.5 L 353.5 332 L 356 333.5 L 357.5 336 L 360 337.5 L 361.5 340 L 364 341.5 L 365.5 344 L 368 345.5 L 369.5 348 L 372 349.5 L 373.5 352 L 376 353.5 L 377.5 356 L 380 357.5 L 381.5 360 L 384 361.5 L 385.5 364 L 388 365.5 L 389.5 368 L 392 369.5 L 393.5 372 Q 403.25 368.75 400 378.5 L 408 380 L 409.5 388 L 412 389.5 L 413.5 392 L 420 393.5 Q 417.75 401.75 421.5 404 L 424 405.5 L 424 426.5 L 422.5 428 L 420 429.5 L 418.5 436 L 416 437.5 L 414.5 440 L 412 441.5 L 410.5 444 L 404 445.5 L 402.5 448 L 381.5 448 L 380 446.5 L 378.5 444 L 372 442.5 L 370.5 440 L 368 438.5 L 366.5 436 L 364 434.5 L 362.5 432 L 360 430.5 L 358.5 428 L 356 426.5 L 354.5 424 L 352 422.5 L 350.5 420 L 348 418.5 L 346.5 416 L 344 414.5 L 342.5 412 L 340 410.5 L 338.5 404 Q 328.75 407.25 332 397.5 L 328 394.5 L 326.5 392 L 324 390.5 L 322.5 388 L 320 386.5 L 318.5 384 L 316 382.5 L 314.5 380 L 312 378.5 L 310.5 376 L 308 374.5 L 306.5 372 L 304 370.5 L 302.5 368 L 300 366.5 L 298.5 364 L 296 362.5 L 294.5 360 L 292 358.5 L 292 341.5 L 293.5 340 L 296 338.5 Q 292.75 328.75 302.5 332 L 305.5 328 L 308 326.5 L 309.5 324 L 312 322.5 L 313.5 320 L 316 318.5 L 317.5 316 L 320 314.5 L 321.5 312 Z " /></svg>